<mxfile host="app.diagrams.net" modified="2023-07-25T19:57:18.736Z" agent="Mozilla/5.0 (Windows NT 10.0; Win64; x64) AppleWebKit/537.36 (KHTML, like Gecko) Chrome/114.0.0.0 Safari/537.36" etag="yYRcjNWnuvesS1JwaehQ" version="21.6.5" type="google">
  <diagram name="Página-1" id="_I9gK2X7m9CiB95ZFbRU">
    <mxGraphModel grid="0" page="0" gridSize="10" guides="1" tooltips="1" connect="1" arrows="1" fold="1" pageScale="1" pageWidth="827" pageHeight="1169" math="0" shadow="0">
      <root>
        <mxCell id="0" />
        <mxCell id="1" parent="0" />
        <mxCell id="eBvbsZZL_h-VqPzOIR-U-1" value="Construa o Modelo Entidade Relacionamento considerando o seguinte cenário:&#xa;&#xa;&#xa;- uma empresa possui vários veículos&#xa;- um veículo possui marca(gm, ford, fiat), modelo(onix, fiesta, argo) e placa&#xa;- um cliente (cpf, nome) aluga um ou mais veículos&#xa;&#xa;" style="text;whiteSpace=wrap;fontSize=16;" vertex="1" parent="1">
          <mxGeometry x="457" y="12" width="600" height="140" as="geometry" />
        </mxCell>
        <mxCell id="eBvbsZZL_h-VqPzOIR-U-4" style="edgeStyle=orthogonalEdgeStyle;rounded=0;orthogonalLoop=1;jettySize=auto;html=1;entryX=0;entryY=0.5;entryDx=0;entryDy=0;endArrow=none;endFill=0;exitX=0.696;exitY=1.005;exitDx=0;exitDy=0;exitPerimeter=0;fillColor=#e1d5e7;strokeColor=#9673a6;" edge="1" parent="1" source="eBvbsZZL_h-VqPzOIR-U-5" target="eBvbsZZL_h-VqPzOIR-U-15">
          <mxGeometry relative="1" as="geometry">
            <mxPoint x="298" y="430" as="targetPoint" />
            <mxPoint x="300" y="300" as="sourcePoint" />
            <Array as="points">
              <mxPoint x="300" y="260" />
              <mxPoint x="300" y="450" />
            </Array>
          </mxGeometry>
        </mxCell>
        <mxCell id="eBvbsZZL_h-VqPzOIR-U-5" value="Empresa" style="rounded=0;whiteSpace=wrap;html=1;fontSize=12;glass=0;strokeWidth=1;shadow=0;fillColor=#e1d5e7;strokeColor=#9673a6;" vertex="1" parent="1">
          <mxGeometry x="188" y="220" width="224" height="40" as="geometry" />
        </mxCell>
        <mxCell id="eBvbsZZL_h-VqPzOIR-U-64" style="edgeStyle=orthogonalEdgeStyle;rounded=0;orthogonalLoop=1;jettySize=auto;html=1;exitX=1;exitY=0.75;exitDx=0;exitDy=0;entryX=0;entryY=0.5;entryDx=0;entryDy=0;endArrow=none;endFill=0;fillColor=#e1d5e7;strokeColor=#9673a6;" edge="1" parent="1" source="eBvbsZZL_h-VqPzOIR-U-7" target="eBvbsZZL_h-VqPzOIR-U-29">
          <mxGeometry relative="1" as="geometry" />
        </mxCell>
        <mxCell id="eBvbsZZL_h-VqPzOIR-U-7" value="Veículos" style="rounded=0;whiteSpace=wrap;html=1;fontSize=12;glass=0;strokeWidth=1;shadow=0;fillColor=#e1d5e7;strokeColor=#9673a6;" vertex="1" parent="1">
          <mxGeometry x="640" y="429.5" width="104" height="40" as="geometry" />
        </mxCell>
        <mxCell id="eBvbsZZL_h-VqPzOIR-U-8" value="1" style="text;html=1;strokeColor=none;fillColor=none;align=center;verticalAlign=middle;whiteSpace=wrap;rounded=0;" vertex="1" parent="1">
          <mxGeometry x="290" y="320" width="60" height="30" as="geometry" />
        </mxCell>
        <mxCell id="eBvbsZZL_h-VqPzOIR-U-9" value="N" style="text;html=1;strokeColor=none;fillColor=none;align=center;verticalAlign=middle;whiteSpace=wrap;rounded=0;" vertex="1" parent="1">
          <mxGeometry x="470" y="422.5" width="60" height="30" as="geometry" />
        </mxCell>
        <mxCell id="eBvbsZZL_h-VqPzOIR-U-23" style="edgeStyle=orthogonalEdgeStyle;rounded=0;orthogonalLoop=1;jettySize=auto;html=1;exitX=1;exitY=0.5;exitDx=0;exitDy=0;endArrow=none;endFill=0;fillColor=#e1d5e7;strokeColor=#9673a6;" edge="1" parent="1" source="eBvbsZZL_h-VqPzOIR-U-11" target="eBvbsZZL_h-VqPzOIR-U-19">
          <mxGeometry relative="1" as="geometry" />
        </mxCell>
        <mxCell id="eBvbsZZL_h-VqPzOIR-U-24" style="edgeStyle=orthogonalEdgeStyle;rounded=0;orthogonalLoop=1;jettySize=auto;html=1;exitX=1;exitY=0.75;exitDx=0;exitDy=0;entryX=0;entryY=0.5;entryDx=0;entryDy=0;endArrow=none;endFill=0;fillColor=#e1d5e7;strokeColor=#9673a6;" edge="1" parent="1" source="eBvbsZZL_h-VqPzOIR-U-11" target="eBvbsZZL_h-VqPzOIR-U-20">
          <mxGeometry relative="1" as="geometry" />
        </mxCell>
        <mxCell id="eBvbsZZL_h-VqPzOIR-U-37" style="edgeStyle=orthogonalEdgeStyle;rounded=0;orthogonalLoop=1;jettySize=auto;html=1;exitX=0.5;exitY=1;exitDx=0;exitDy=0;endArrow=none;endFill=0;fillColor=#e1d5e7;strokeColor=#9673a6;" edge="1" parent="1" source="eBvbsZZL_h-VqPzOIR-U-11">
          <mxGeometry relative="1" as="geometry">
            <mxPoint x="402" y="800" as="targetPoint" />
          </mxGeometry>
        </mxCell>
        <mxCell id="eBvbsZZL_h-VqPzOIR-U-11" value="Cliente" style="rounded=0;whiteSpace=wrap;html=1;fontSize=12;glass=0;strokeWidth=1;shadow=0;fillColor=#e1d5e7;strokeColor=#9673a6;" vertex="1" parent="1">
          <mxGeometry x="350" y="640" width="104" height="40" as="geometry" />
        </mxCell>
        <mxCell id="eBvbsZZL_h-VqPzOIR-U-14" style="edgeStyle=orthogonalEdgeStyle;rounded=0;orthogonalLoop=1;jettySize=auto;html=1;exitX=1;exitY=0.5;exitDx=0;exitDy=0;entryX=0;entryY=0.5;entryDx=0;entryDy=0;endArrow=none;endFill=0;fillColor=#e1d5e7;strokeColor=#9673a6;" edge="1" parent="1" source="eBvbsZZL_h-VqPzOIR-U-15" target="eBvbsZZL_h-VqPzOIR-U-7">
          <mxGeometry relative="1" as="geometry" />
        </mxCell>
        <mxCell id="eBvbsZZL_h-VqPzOIR-U-15" value="Possui" style="rhombus;whiteSpace=wrap;html=1;shadow=0;fontFamily=Helvetica;fontSize=12;align=center;strokeWidth=1;spacing=6;spacingTop=-4;fillColor=#e1d5e7;strokeColor=#9673a6;" vertex="1" parent="1">
          <mxGeometry x="250" y="410" width="100" height="80" as="geometry" />
        </mxCell>
        <mxCell id="eBvbsZZL_h-VqPzOIR-U-19" value="CPF" style="ellipse;whiteSpace=wrap;html=1;;fontSize=12;glass=0;strokeWidth=1;shadow=0;fillColor=#e1d5e7;strokeColor=#9673a6;" vertex="1" parent="1">
          <mxGeometry x="490" y="630" width="70" height="30" as="geometry" />
        </mxCell>
        <mxCell id="eBvbsZZL_h-VqPzOIR-U-20" value="Nome" style="ellipse;whiteSpace=wrap;html=1;;fontSize=12;glass=0;strokeWidth=1;shadow=0;fillColor=#e1d5e7;strokeColor=#9673a6;" vertex="1" parent="1">
          <mxGeometry x="510" y="663" width="70" height="30" as="geometry" />
        </mxCell>
        <mxCell id="eBvbsZZL_h-VqPzOIR-U-26" value="Marcas" style="rounded=0;whiteSpace=wrap;html=1;fontSize=12;glass=0;strokeWidth=1;shadow=0;fillColor=#e1d5e7;strokeColor=#9673a6;" vertex="1" parent="1">
          <mxGeometry x="1082" y="493" width="104" height="40" as="geometry" />
        </mxCell>
        <mxCell id="eBvbsZZL_h-VqPzOIR-U-27" value="1" style="text;html=1;strokeColor=none;fillColor=none;align=center;verticalAlign=middle;whiteSpace=wrap;rounded=0;" vertex="1" parent="1">
          <mxGeometry x="1012" y="485" width="60" height="30" as="geometry" />
        </mxCell>
        <mxCell id="eBvbsZZL_h-VqPzOIR-U-28" style="edgeStyle=orthogonalEdgeStyle;rounded=0;orthogonalLoop=1;jettySize=auto;html=1;exitX=1;exitY=0.5;exitDx=0;exitDy=0;entryX=0;entryY=0.5;entryDx=0;entryDy=0;endArrow=none;endFill=0;fillColor=#e1d5e7;strokeColor=#9673a6;" edge="1" parent="1" source="eBvbsZZL_h-VqPzOIR-U-29" target="eBvbsZZL_h-VqPzOIR-U-26">
          <mxGeometry relative="1" as="geometry" />
        </mxCell>
        <mxCell id="eBvbsZZL_h-VqPzOIR-U-29" value="Possui" style="rhombus;whiteSpace=wrap;html=1;shadow=0;fontFamily=Helvetica;fontSize=12;align=center;strokeWidth=1;spacing=6;spacingTop=-4;fillColor=#e1d5e7;strokeColor=#9673a6;" vertex="1" parent="1">
          <mxGeometry x="902" y="473" width="100" height="80" as="geometry" />
        </mxCell>
        <mxCell id="eBvbsZZL_h-VqPzOIR-U-32" value="N" style="text;html=1;strokeColor=none;fillColor=none;align=center;verticalAlign=middle;whiteSpace=wrap;rounded=0;" vertex="1" parent="1">
          <mxGeometry x="822" y="486" width="60" height="30" as="geometry" />
        </mxCell>
        <mxCell id="eBvbsZZL_h-VqPzOIR-U-33" style="edgeStyle=orthogonalEdgeStyle;rounded=0;orthogonalLoop=1;jettySize=auto;html=1;exitX=1;exitY=0.5;exitDx=0;exitDy=0;endArrow=none;endFill=0;fillColor=#e1d5e7;strokeColor=#9673a6;" edge="1" parent="1" target="eBvbsZZL_h-VqPzOIR-U-35">
          <mxGeometry relative="1" as="geometry">
            <mxPoint x="1186" y="499.5" as="sourcePoint" />
          </mxGeometry>
        </mxCell>
        <mxCell id="eBvbsZZL_h-VqPzOIR-U-34" style="edgeStyle=orthogonalEdgeStyle;rounded=0;orthogonalLoop=1;jettySize=auto;html=1;exitX=1;exitY=0.75;exitDx=0;exitDy=0;entryX=0;entryY=0.5;entryDx=0;entryDy=0;endArrow=none;endFill=0;fillColor=#e1d5e7;strokeColor=#9673a6;" edge="1" parent="1" target="eBvbsZZL_h-VqPzOIR-U-36">
          <mxGeometry relative="1" as="geometry">
            <mxPoint x="1186" y="509.5" as="sourcePoint" />
          </mxGeometry>
        </mxCell>
        <mxCell id="eBvbsZZL_h-VqPzOIR-U-35" value="GM" style="ellipse;whiteSpace=wrap;html=1;;fontSize=12;glass=0;strokeWidth=1;shadow=0;fillColor=#e1d5e7;strokeColor=#9673a6;" vertex="1" parent="1">
          <mxGeometry x="1222" y="469.5" width="70" height="30" as="geometry" />
        </mxCell>
        <mxCell id="eBvbsZZL_h-VqPzOIR-U-36" value="Ford" style="ellipse;whiteSpace=wrap;html=1;;fontSize=12;glass=0;strokeWidth=1;shadow=0;fillColor=#e1d5e7;strokeColor=#9673a6;" vertex="1" parent="1">
          <mxGeometry x="1242" y="502.5" width="70" height="30" as="geometry" />
        </mxCell>
        <mxCell id="eBvbsZZL_h-VqPzOIR-U-45" style="edgeStyle=orthogonalEdgeStyle;rounded=0;orthogonalLoop=1;jettySize=auto;html=1;exitX=1;exitY=0.5;exitDx=0;exitDy=0;entryX=0.5;entryY=1;entryDx=0;entryDy=0;endArrow=none;endFill=0;fillColor=#e1d5e7;strokeColor=#9673a6;" edge="1" parent="1" source="eBvbsZZL_h-VqPzOIR-U-38" target="eBvbsZZL_h-VqPzOIR-U-7">
          <mxGeometry relative="1" as="geometry" />
        </mxCell>
        <mxCell id="eBvbsZZL_h-VqPzOIR-U-38" value="Aluguel" style="rhombus;whiteSpace=wrap;html=1;shadow=0;fontFamily=Helvetica;fontSize=12;align=center;strokeWidth=1;spacing=6;spacingTop=-4;fillColor=#e1d5e7;strokeColor=#9673a6;" vertex="1" parent="1">
          <mxGeometry x="352" y="800" width="100" height="80" as="geometry" />
        </mxCell>
        <mxCell id="eBvbsZZL_h-VqPzOIR-U-39" style="edgeStyle=orthogonalEdgeStyle;rounded=0;orthogonalLoop=1;jettySize=auto;html=1;exitX=1;exitY=0.75;exitDx=0;exitDy=0;entryX=0;entryY=0.5;entryDx=0;entryDy=0;endArrow=none;endFill=0;fillColor=#e1d5e7;strokeColor=#9673a6;" edge="1" parent="1" source="eBvbsZZL_h-VqPzOIR-U-26" target="eBvbsZZL_h-VqPzOIR-U-40">
          <mxGeometry relative="1" as="geometry">
            <mxPoint x="1186" y="550" as="sourcePoint" />
          </mxGeometry>
        </mxCell>
        <mxCell id="eBvbsZZL_h-VqPzOIR-U-40" value="Fiat" style="ellipse;whiteSpace=wrap;html=1;;fontSize=12;glass=0;strokeWidth=1;shadow=0;fillColor=#e1d5e7;strokeColor=#9673a6;" vertex="1" parent="1">
          <mxGeometry x="1242" y="543" width="70" height="30" as="geometry" />
        </mxCell>
        <mxCell id="eBvbsZZL_h-VqPzOIR-U-41" value="N" style="text;html=1;strokeColor=none;fillColor=none;align=center;verticalAlign=middle;whiteSpace=wrap;rounded=0;" vertex="1" parent="1">
          <mxGeometry x="384" y="730" width="60" height="30" as="geometry" />
        </mxCell>
        <mxCell id="eBvbsZZL_h-VqPzOIR-U-46" value="N" style="text;html=1;strokeColor=none;fillColor=none;align=center;verticalAlign=middle;whiteSpace=wrap;rounded=0;" vertex="1" parent="1">
          <mxGeometry x="640" y="620" width="60" height="30" as="geometry" />
        </mxCell>
        <mxCell id="eBvbsZZL_h-VqPzOIR-U-48" value="Modelos" style="rounded=0;whiteSpace=wrap;html=1;fontSize=12;glass=0;strokeWidth=1;shadow=0;fillColor=#e1d5e7;strokeColor=#9673a6;" vertex="1" parent="1">
          <mxGeometry x="1096" y="342" width="104" height="40" as="geometry" />
        </mxCell>
        <mxCell id="eBvbsZZL_h-VqPzOIR-U-49" style="edgeStyle=orthogonalEdgeStyle;rounded=0;orthogonalLoop=1;jettySize=auto;html=1;exitX=1;exitY=0.5;exitDx=0;exitDy=0;endArrow=none;endFill=0;fillColor=#e1d5e7;strokeColor=#9673a6;" edge="1" parent="1" target="eBvbsZZL_h-VqPzOIR-U-51">
          <mxGeometry relative="1" as="geometry">
            <mxPoint x="1200" y="349" as="sourcePoint" />
          </mxGeometry>
        </mxCell>
        <mxCell id="eBvbsZZL_h-VqPzOIR-U-50" style="edgeStyle=orthogonalEdgeStyle;rounded=0;orthogonalLoop=1;jettySize=auto;html=1;exitX=1;exitY=0.75;exitDx=0;exitDy=0;entryX=0;entryY=0.5;entryDx=0;entryDy=0;endArrow=none;endFill=0;fillColor=#e1d5e7;strokeColor=#9673a6;" edge="1" parent="1" target="eBvbsZZL_h-VqPzOIR-U-52">
          <mxGeometry relative="1" as="geometry">
            <mxPoint x="1200" y="359" as="sourcePoint" />
          </mxGeometry>
        </mxCell>
        <mxCell id="eBvbsZZL_h-VqPzOIR-U-51" value="Onix" style="ellipse;whiteSpace=wrap;html=1;;fontSize=12;glass=0;strokeWidth=1;shadow=0;fillColor=#e1d5e7;strokeColor=#9673a6;" vertex="1" parent="1">
          <mxGeometry x="1236" y="319" width="70" height="30" as="geometry" />
        </mxCell>
        <mxCell id="eBvbsZZL_h-VqPzOIR-U-52" value="Fiesta" style="ellipse;whiteSpace=wrap;html=1;;fontSize=12;glass=0;strokeWidth=1;shadow=0;fillColor=#e1d5e7;strokeColor=#9673a6;" vertex="1" parent="1">
          <mxGeometry x="1256" y="352" width="70" height="30" as="geometry" />
        </mxCell>
        <mxCell id="eBvbsZZL_h-VqPzOIR-U-53" style="edgeStyle=orthogonalEdgeStyle;rounded=0;orthogonalLoop=1;jettySize=auto;html=1;exitX=1;exitY=0.75;exitDx=0;exitDy=0;entryX=0;entryY=0.5;entryDx=0;entryDy=0;endArrow=none;endFill=0;fillColor=#e1d5e7;strokeColor=#9673a6;" edge="1" parent="1" target="eBvbsZZL_h-VqPzOIR-U-54">
          <mxGeometry relative="1" as="geometry">
            <mxPoint x="1200" y="373" as="sourcePoint" />
          </mxGeometry>
        </mxCell>
        <mxCell id="eBvbsZZL_h-VqPzOIR-U-54" value="Argo" style="ellipse;whiteSpace=wrap;html=1;;fontSize=12;glass=0;strokeWidth=1;shadow=0;fillColor=#e1d5e7;strokeColor=#9673a6;" vertex="1" parent="1">
          <mxGeometry x="1256" y="392.5" width="70" height="30" as="geometry" />
        </mxCell>
        <mxCell id="eBvbsZZL_h-VqPzOIR-U-58" value="1" style="text;html=1;strokeColor=none;fillColor=none;align=center;verticalAlign=middle;whiteSpace=wrap;rounded=0;" vertex="1" parent="1">
          <mxGeometry x="1026" y="329" width="60" height="30" as="geometry" />
        </mxCell>
        <mxCell id="eBvbsZZL_h-VqPzOIR-U-59" style="edgeStyle=orthogonalEdgeStyle;rounded=0;orthogonalLoop=1;jettySize=auto;html=1;exitX=1;exitY=0.5;exitDx=0;exitDy=0;entryX=0;entryY=0.5;entryDx=0;entryDy=0;endArrow=none;endFill=0;fillColor=#e1d5e7;strokeColor=#9673a6;" edge="1" parent="1" source="eBvbsZZL_h-VqPzOIR-U-60">
          <mxGeometry relative="1" as="geometry">
            <mxPoint x="1096" y="359" as="targetPoint" />
          </mxGeometry>
        </mxCell>
        <mxCell id="eBvbsZZL_h-VqPzOIR-U-63" style="edgeStyle=orthogonalEdgeStyle;rounded=0;orthogonalLoop=1;jettySize=auto;html=1;exitX=0;exitY=0.5;exitDx=0;exitDy=0;entryX=1;entryY=0.369;entryDx=0;entryDy=0;entryPerimeter=0;endArrow=none;endFill=0;fillColor=#e1d5e7;strokeColor=#9673a6;" edge="1" parent="1" source="eBvbsZZL_h-VqPzOIR-U-60" target="eBvbsZZL_h-VqPzOIR-U-7">
          <mxGeometry relative="1" as="geometry" />
        </mxCell>
        <mxCell id="eBvbsZZL_h-VqPzOIR-U-60" value="Possui" style="rhombus;whiteSpace=wrap;html=1;shadow=0;fontFamily=Helvetica;fontSize=12;align=center;strokeWidth=1;spacing=6;spacingTop=-4;fillColor=#e1d5e7;strokeColor=#9673a6;" vertex="1" parent="1">
          <mxGeometry x="916" y="319" width="100" height="80" as="geometry" />
        </mxCell>
        <mxCell id="eBvbsZZL_h-VqPzOIR-U-61" value="N" style="text;html=1;strokeColor=none;fillColor=none;align=center;verticalAlign=middle;whiteSpace=wrap;rounded=0;" vertex="1" parent="1">
          <mxGeometry x="842" y="337" width="60" height="30" as="geometry" />
        </mxCell>
        <mxCell id="eBvbsZZL_h-VqPzOIR-U-65" style="edgeStyle=orthogonalEdgeStyle;rounded=0;orthogonalLoop=1;jettySize=auto;html=1;exitX=1;exitY=0.5;exitDx=0;exitDy=0;endArrow=none;endFill=0;fillColor=#e1d5e7;strokeColor=#9673a6;" edge="1" parent="1" target="eBvbsZZL_h-VqPzOIR-U-66">
          <mxGeometry relative="1" as="geometry">
            <mxPoint x="721" y="429" as="sourcePoint" />
            <Array as="points">
              <mxPoint x="721" y="420" />
              <mxPoint x="680" y="420" />
            </Array>
          </mxGeometry>
        </mxCell>
        <mxCell id="eBvbsZZL_h-VqPzOIR-U-66" value="Placa" style="ellipse;whiteSpace=wrap;html=1;;fontSize=12;glass=0;strokeWidth=1;shadow=0;fillColor=#e1d5e7;strokeColor=#9673a6;" vertex="1" parent="1">
          <mxGeometry x="640" y="352" width="70" height="30" as="geometry" />
        </mxCell>
      </root>
    </mxGraphModel>
  </diagram>
</mxfile>
